HIERARCHY
ROOT Root
{
	OFFSET 0.00000 0.00000 0.00000
	CHANNELS 6 Xposition Yposition Zposition Zrotation Xrotation Yrotation
	JOINT Hip
	{
		OFFSET 0 0 0	
		CHANNELS 3 Zrotation Xrotation Yrotation
		JOINT Tummy
		{
			OFFSET 0 0.04 0	
			CHANNELS 3 Zrotation Xrotation Yrotation
			JOINT ChestBottom
			{
				OFFSET 0 0.194 0	
				CHANNELS 3 Zrotation Xrotation Yrotation
				JOINT ChestTop
				{
					OFFSET 0 0.166 0	
					CHANNELS 3 Zrotation Xrotation Yrotation
					JOINT LeftCollar
					{
						OFFSET 0 0.1 0	
						CHANNELS 3 Zrotation Xrotation Yrotation
						JOINT LeftUpperArm
						{
							OFFSET 0.156 -0.02 0.03	
							CHANNELS 3 Zrotation Xrotation Yrotation
							JOINT LeftForeArm
							{
								OFFSET 0.035 -0.27 -0.01	
								CHANNELS 3 Zrotation Xrotation Yrotation
								JOINT LeftHand
								{
									OFFSET 0.01 -0.27 0.01	
									CHANNELS 3 Zrotation Xrotation Yrotation
									End Site
									{
										OFFSET 0 -0.15 0
									}
								}
							}
						}
					}
					JOINT RightCollar
					{
						OFFSET 0 0.1 0	
						CHANNELS 3 Zrotation Xrotation Yrotation
						JOINT RightUpperArm
						{
							OFFSET -0.156 -0.02 0.03	
							CHANNELS 3 Zrotation Xrotation Yrotation
							JOINT RightForeArm
							{
								OFFSET -0.035 -0.27 -0.01	
								CHANNELS 3 Zrotation Xrotation Yrotation
								JOINT RightHand
								{
									OFFSET -0.01 -0.27 0.01	
									CHANNELS 3 Zrotation Xrotation Yrotation
									End Site
									{
										OFFSET 0 -0.15 0
									}
								}
							}
						}
					}
					JOINT Neck
					{
						OFFSET 0 0.1 0	
						CHANNELS 3 Zrotation Xrotation Yrotation
						JOINT Head
						{
							OFFSET 0 0.127 0.03	
							CHANNELS 3 Zrotation Xrotation Yrotation
							End Site
							{
								OFFSET 0 0.127 0.03
							}
						}
					}
				}
			}
		}
	}
	JOINT LeftHip
	{
		OFFSET 0 0 0	
		CHANNELS 3 Zrotation Xrotation Yrotation
		JOINT LeftThigh
		{
			OFFSET 0.088 -0.06 0	
			CHANNELS 3 Zrotation Xrotation Yrotation
			JOINT LeftLowerLeg
			{
				OFFSET 0 -0.39 0.02	
				CHANNELS 3 Zrotation Xrotation Yrotation
				JOINT LeftFootTop
				{
					OFFSET 0 -0.43 -0.02	
					CHANNELS 3 Zrotation Xrotation Yrotation
					JOINT LeftFootFront
					{
						OFFSET 0 -0.07 0.085	
						CHANNELS 3 Zrotation Xrotation Yrotation
						End Site
						{
							OFFSET 0 -0.005 0.09
						}
					}
				}
				JOINT LeftHeel
				{
					OFFSET 0 -0.43 -0.02	
					CHANNELS 3 Zrotation Xrotation Yrotation
					End Site
					{
						OFFSET 0 -0.075 -0.05
					}
				}
			}
		}
	}
	JOINT RightHip
	{
		OFFSET 0 0 0	
		CHANNELS 3 Zrotation Xrotation Yrotation
		JOINT RightThigh
		{
			OFFSET -0.088 -0.06 0	
			CHANNELS 3 Zrotation Xrotation Yrotation
			JOINT RightLowerLeg
			{
				OFFSET 0 -0.39 0.02	
				CHANNELS 3 Zrotation Xrotation Yrotation
				JOINT RightFootTop
				{
					OFFSET 0 -0.43 -0.02	
					CHANNELS 3 Zrotation Xrotation Yrotation
					JOINT RightFootFront
					{
						OFFSET 0 -0.07 0.085	
						CHANNELS 3 Zrotation Xrotation Yrotation
						End Site
						{
							OFFSET 0 -0.005 0.09
						}
					}
				}
				JOINT RightHeel
				{
					OFFSET 0 -0.43 -0.02	
					CHANNELS 3 Zrotation Xrotation Yrotation
					End Site
					{
						OFFSET 0 -0.075 -0.05
					}
				}
			}
		}
	}
}
MOTION
Frames: 12
Frame Time: 0.05
0 0.955 0 -0 0 -0 -0 0 -0 -0 0 -0 -18.657 32.372 34.88 -0 0 -0 -0 0 -0 -32.857 -61.134 -41.684 -140.36 -59.655 -41.681 -0 0 -0 -0 0 -0 26.023 -45.128 50.163 154.84 -46.146 53.915 -0 0 -0 -1.6713 -30.234 -12.756 -1.6713 -30.234 -12.756 -0 0 -0 -0 0 -0 -0 0 -0 -0 0 -0 -0 0 -0 -0 0 -0 -0 0 -0 -0 0 -0 -0 0 -0 -0 0 -0 -0 0 -0 -0 0 -0 
0 0.955 0 -0 0 -0 -0 0 -0 -0 0 -0 -18.674 32.348 34.834 -0 0 -0 -0 0 -0 -32.648 -60.978 -41.462 -140.58 -59.616 -43.243 -0 0 -0 -0 0 -0 26.125 -45.06 50.239 154.74 -46.274 53.645 -0 0 -0 -1.7788 -30.542 -12.638 -1.7788 -30.542 -12.638 -0 0 -0 -0 0 -0 -0 0 -0 -0 0 -0 -0 0 -0 -0 0 -0 -0 0 -0 -0 0 -0 -0 0 -0 -0 0 -0 -0 0 -0 -0 0 -0 
0 0.955 0 -0 0 -0 -0 0 -0 -0 0 -0 -18.657 32.272 34.818 -0 0 -0 -0 0 -0 -32.474 -60.739 -41.275 -140.69 -59.553 -44.814 -0 0 -0 -0 0 -0 26.164 -44.956 50.217 154.67 -46.408 53.388 -0 0 -0 -1.986 -31.007 -12.443 -1.986 -31.007 -12.443 -0 0 -0 -0 0 -0 -0 0 -0 -0 0 -0 -0 0 -0 -0 0 -0 -0 0 -0 -0 0 -0 -0 0 -0 -0 0 -0 -0 0 -0 -0 0 -0 
0 0.955 0 -0 0 -0 -0 0 -0 -0 0 -0 -18.669 32.248 34.858 -0 0 -0 -0 0 -0 -32.555 -60.572 -41.326 -140.6 -59.497 -46.227 -0 0 -0 -0 0 -0 26.232 -44.891 50.263 154.65 -46.468 53.232 -0 0 -0 -2.0627 -31.072 -12.28 -2.0627 -31.072 -12.28 -0 0 -0 -0 0 -0 -0 0 -0 -0 0 -0 -0 0 -0 -0 0 -0 -0 0 -0 -0 0 -0 -0 0 -0 -0 0 -0 -0 0 -0 -0 0 -0 
0 0.955 0 -0 0 -0 -0 0 -0 -0 0 -0 -18.571 32.047 34.908 -0 0 -0 -0 0 -0 -32.41 -60.281 -41.145 -140.91 -59.215 -47.409 -0 0 -0 -0 0 -0 26.331 -44.758 50.048 154.43 -46.393 52.6 -0 0 -0 -2.0854 -30.806 -12.143 -2.0854 -30.806 -12.143 -0 0 -0 -0 0 -0 -0 0 -0 -0 0 -0 -0 0 -0 -0 0 -0 -0 0 -0 -0 0 -0 -0 0 -0 -0 0 -0 -0 0 -0 -0 0 -0 
0 0.955 0 -0 0 -0 -0 0 -0 -0 0 -0 -18.539 31.909 34.892 -0 0 -0 -0 0 -0 -32.181 -60.231 -40.911 -141.26 -58.776 -49.261 -0 0 -0 -0 0 -0 26.684 -44.709 50.064 154.16 -46.376 51.851 -0 0 -0 -2.0228 -30.463 -11.939 -2.0228 -30.463 -11.939 -0 0 -0 -0 0 -0 -0 0 -0 -0 0 -0 -0 0 -0 -0 0 -0 -0 0 -0 -0 0 -0 -0 0 -0 -0 0 -0 -0 0 -0 -0 0 -0 
0 0.955 0 -0 0 -0 -0 0 -0 -0 0 -0 -18.63 31.846 35.019 -0 0 -0 -0 0 -0 -32.12 -60.341 -41.032 -141.08 -58.624 -51.288 -0 0 -0 -0 0 -0 27.054 -44.802 50.18 154.21 -46.303 50.959 -0 0 -0 -2.0655 -30.294 -11.775 -2.0655 -30.294 -11.775 -0 0 -0 -0 0 -0 -0 0 -0 -0 0 -0 -0 0 -0 -0 0 -0 -0 0 -0 -0 0 -0 -0 0 -0 -0 0 -0 -0 0 -0 -0 0 -0 
0 0.955 0 -0 0 -0 -0 0 -0 -0 0 -0 -18.798 31.953 35.241 -0 0 -0 -0 0 -0 -32.384 -60.594 -41.535 -141.22 -58.525 -52.836 -0 0 -0 -0 0 -0 27.301 -45.011 50.406 154.59 -46.122 50.205 -0 0 -0 -2.1917 -30.513 -11.623 -2.1917 -30.513 -11.623 -0 0 -0 -0 0 -0 -0 0 -0 -0 0 -0 -0 0 -0 -0 0 -0 -0 0 -0 -0 0 -0 -0 0 -0 -0 0 -0 -0 0 -0 -0 0 -0 
0 0.955 0 -0 0 -0 -0 0 -0 -0 0 -0 -18.935 32.22 35.366 -0 0 -0 -0 0 -0 -32.622 -60.958 -41.916 -141.52 -58.427 -54.386 -0 0 -0 -0 0 -0 27.474 -45.225 50.815 154.93 -46.055 49.805 -0 0 -0 -2.3865 -30.975 -11.425 -2.3865 -30.975 -11.425 -0 0 -0 -0 0 -0 -0 0 -0 -0 0 -0 -0 0 -0 -0 0 -0 -0 0 -0 -0 0 -0 -0 0 -0 -0 0 -0 -0 0 -0 -0 0 -0 
0 0.955 0 -0 0 -0 -0 0 -0 -0 0 -0 -18.97 32.453 35.383 -0 0 -0 -0 0 -0 -32.51 -61.197 -41.825 -141.87 -58.22 -55.752 -0 0 -0 -0 0 -0 27.648 -45.316 51.192 155.18 -45.911 49.209 -0 0 -0 -2.6144 -31.546 -11.242 -2.6144 -31.546 -11.242 -0 0 -0 -0 0 -0 -0 0 -0 -0 0 -0 -0 0 -0 -0 0 -0 -0 0 -0 -0 0 -0 -0 0 -0 -0 0 -0 -0 0 -0 -0 0 -0 
0 0.955 0 -0 0 -0 -0 0 -0 -0 0 -0 -18.883 32.601 35.305 -0 0 -0 -0 0 -0 -32.234 -61.3 -41.506 -142.21 -57.95 -56.827 -0 0 -0 -0 0 -0 27.769 -45.276 51.473 155.26 -45.817 48.612 -0 0 -0 -2.7941 -31.921 -11.022 -2.7941 -31.921 -11.022 -0 0 -0 -0 0 -0 -0 0 -0 -0 0 -0 -0 0 -0 -0 0 -0 -0 0 -0 -0 0 -0 -0 0 -0 -0 0 -0 -0 0 -0 -0 0 -0 
0 0.955 0 -0 0 -0 -0 0 -0 -0 0 -0 -18.774 32.656 35.216 -0 0 -0 -0 0 -0 -31.79 -61.299 -41.041 -142.4 -57.674 -57.673 -0 0 -0 -0 0 -0 27.85 -45.18 51.625 155.34 -45.704 48.069 -0 0 -0 -2.9128 -32.069 -10.859 -2.9128 -32.069 -10.859 -0 0 -0 -0 0 -0 -0 0 -0 -0 0 -0 -0 0 -0 -0 0 -0 -0 0 -0 -0 0 -0 -0 0 -0 -0 0 -0 -0 0 -0 -0 0 -0 
